Coordinates
version=1
nRows=14
nColumns=46
inDegrees=yes

Units are S.I. units (second, meters, Newtons, ...)
Angles are in degrees.

endheader
time	pelvis_tilt	pelvis_list	pelvis_rotation	pelvis_tx	pelvis_ty	pelvis_tz	bb_angle	bb_tx	bb_ty	bb_tz	hip_flexion_r	hip_adduction_r	hip_rotation_r	knee_angle_r	knee_angle_r_beta	ankle_angle_r	subtalar_angle_r	mtp_angle_r	crank_angle_r	hip_flexion_l	hip_adduction_l	hip_rotation_l	knee_angle_l	knee_angle_l_beta	ankle_angle_l	subtalar_angle_l	mtp_angle_l	crank_angle_l	lumbar_extension	lumbar_bending	lumbar_rotation	arm_flex_r	arm_add_r	arm_rot_r	elbow_flex_r	pro_sup_r	wrist_flex_r	wrist_dev_r	arm_flex_l	arm_add_l	arm_rot_l	elbow_flex_l	pro_sup_l	wrist_flex_l	wrist_dev_l
      0.00500000	    -17.37824765	     -4.53977709	     -1.32920088	      0.11087195	      1.13528743	     -0.23054452	      0.00000000	      0.50000000	      0.00000000	      0.25000000	     92.72872193	     -9.48851543	     -5.60123681	    100.14398713	      1.74784230	     20.82380589	      3.88662361	      0.00000000	      0.00000000	     47.27099882	    -13.79754182	     -5.59495906	     54.90260098	      0.95823115	     19.85974315	      9.40684542	      0.00000000	      0.00000000	    -47.19205610	      5.62066381	      6.55363778	     89.51024272	     -8.39008665	     35.81569797	     29.44260676	     22.21937692	      0.00000000	      0.00000000	     89.46522127	     -1.43033615	     36.04517539	     20.17139928	     20.98881087	      0.00000000	      0.00000000
      0.01000000	    -17.18696889	     -4.64340994	     -3.41716446	      0.10867665	      1.13604263	     -0.22537562	      0.00000000	      0.50000000	      0.00000000	      0.25000000	     92.60542273	     -6.60350452	     -5.68470826	     99.56389365	      1.73771776	     20.13843746	      2.62002433	      0.00000000	      0.00000000	     46.74904696	    -15.90436613	     -7.36190886	     55.06632707	      0.96108871	     20.00442767	     10.27554955	      0.00000000	      0.00000000	    -47.57865577	      4.01745492	      8.01826372	     89.53154514	     -8.39036236	     35.79787115	     29.65160277	     22.29516645	      0.00000000	      0.00000000	     89.49745757	     -1.65886776	     36.06942480	     20.67368435	     21.09434313	      0.00000000	      0.00000000
      0.01500000	    -17.20348715	     -4.67216284	     -3.40531644	      0.10867994	      1.13598761	     -0.22540348	      0.00000000	      0.50000000	      0.00000000	      0.25000000	     92.61763994	     -6.61408820	     -5.71560743	     99.56797102	      1.73778892	     20.15408925	      2.60550723	      0.00000000	      0.00000000	     46.78518486	    -15.92066261	     -7.33453263	     55.08388673	      0.96139519	     20.00692623	     10.24359869	      0.00000000	      0.00000000	    -47.58125025	      4.04129660	      8.04927258	     89.52136094	     -8.10979112	     34.33299888	     29.14852168	     25.24762315	      0.00000000	      0.00000000	     89.49178909	     -1.17769906	     33.45056683	     20.29772903	     23.86588901	      0.00000000	      0.00000000
      0.02000000	    -17.05805281	     -4.72500911	     -3.36855750	      0.10863639	      1.13621330	     -0.22560433	      0.00000000	      0.50000000	      0.00000000	      0.25000000	     92.43164651	     -6.68422627	     -5.74849758	     99.55992033	      1.73764841	     20.26458420	      2.89072167	      0.00000000	      0.00000000	     46.59909096	    -15.78154323	     -7.08046905	     54.97448357	      0.95948574	     20.01519196	     10.50400496	      0.00000000	      0.00000000	    -47.78437368	      4.08683244	      8.07476272	     89.51612499	     -8.14932148	     33.70818626	     29.33567562	     26.36355405	      0.00000000	      0.00000000	     89.48212598	     -0.98791148	     32.36235664	     20.44850988	     24.90512971	      0.00000000	      0.00000000
      0.02500000	    -17.11029361	     -4.58757226	     -3.32511725	      0.10857651	      1.13635795	     -0.22599298	      0.00000000	      0.50000000	      0.00000000	      0.25000000	     92.52420289	     -6.71232562	     -5.56984246	     99.54791433	      1.73743887	     20.17168553	      2.70707083	      0.00000000	      0.00000000	     46.64188735	    -15.66163656	     -7.22457301	     54.97189102	      0.95944049	     19.96011389	     10.08538753	      0.00000000	      0.00000000	    -47.66714149	      3.97389756	      7.93534893	     89.51376759	     -8.06165918	     33.87198022	     28.78962952	     27.02772948	      0.00000000	      0.00000000	     89.50535627	     -0.81703092	     32.04120328	     19.96600161	     25.45809732	      0.00000000	      0.00000000
      0.03000000	    -17.14120532	     -4.58896699	     -3.27937834	      0.10862192	      1.13628467	     -0.22616399	      0.00000000	      0.50000000	      0.00000000	      0.25000000	     92.55610022	     -6.78323415	     -5.58218881	     99.56203882	      1.73768539	     20.16962768	      2.65526908	      0.00000000	      0.00000000	     46.71180488	    -15.63066354	     -7.17497653	     55.02501409	      0.96036767	     19.97105913	      9.89920773	      0.00000000	      0.00000000	    -47.59073055	      3.99453708	      7.87566482	     89.51201638	     -8.09993959	     34.18464030	     28.42715078	     27.56623619	      0.00000000	      0.00000000	     89.49674857	     -0.80271679	     31.96206790	     19.64356342	     25.86462028	      0.00000000	      0.00000000
      0.03500000	    -17.05554125	     -4.50819061	     -3.29994459	      0.10866151	      1.13651870	     -0.22613658	      0.00000000	      0.50000000	      0.00000000	      0.25000000	     92.48541542	     -6.75485150	     -5.48032002	     99.57379555	      1.73789058	     20.20358234	      2.70812781	      0.00000000	      0.00000000	     46.54441584	    -15.58195058	     -7.27715334	     54.92820400	      0.95867801	     20.00610232	      9.96803080	      0.00000000	      0.00000000	    -47.72333511	      3.91631209	      7.87635553	     89.50886856	     -8.01641862	     33.56693894	     28.67509906	     27.74258192	      0.00000000	      0.00000000	     89.49789299	     -0.56864479	     30.46588374	     20.08845024	     25.70804966	      0.00000000	      0.00000000
      0.04000000	    -17.10789703	     -4.57198238	     -3.28477974	      0.10862835	      1.13639243	     -0.22618839	      0.00000000	      0.50000000	      0.00000000	      0.25000000	     92.52978371	     -6.75992279	     -5.54081047	     99.56344467	      1.73770992	     20.14981054	      2.68791538	      0.00000000	      0.00000000	     46.64575659	    -15.62985607	     -7.21403336	     54.97494371	      0.95949377	     20.01236292	     10.03900730	      0.00000000	      0.00000000	    -47.64254316	      3.97579744	      7.93686166	     89.52697061	     -8.73823817	     36.21018449	     29.05512462	     26.61916086	      0.00000000	      0.00000000	     89.50727475	     -1.26050100	     34.75570791	     20.07919866	     24.29853748	      0.00000000	      0.00000000
      0.04500000	    -17.09522164	     -4.58606732	     -3.27312167	      0.10865153	      1.13641007	     -0.22624050	      0.00000000	      0.50000000	      0.00000000	      0.25000000	     92.51293043	     -6.77357184	     -5.55643287	     99.56766923	      1.73778366	     20.18265865	      2.71986294	      0.00000000	      0.00000000	     46.63636955	    -15.62645794	     -7.19414805	     54.97583898	      0.95950940	     19.99536688	      9.99466532	      0.00000000	      0.00000000	    -47.67653039	      4.00242911	      7.94007564	     89.52454463	     -8.46898322	     35.04079868	     28.85806345	     27.39462820	      0.00000000	      0.00000000	     89.50373743	     -1.06808856	     33.33431008	     20.01040986	     25.08255477	      0.00000000	      0.00000000
      0.05000000	    -17.09188376	     -4.55737641	     -3.31396494	      0.10869696	      1.13646470	     -0.22617815	      0.00000000	      0.50000000	      0.00000000	      0.25000000	     92.51569752	     -6.72339041	     -5.51735191	     99.56618267	      1.73775771	     20.16677526	      2.70858156	      0.00000000	      0.00000000	     46.59975681	    -15.64179500	     -7.27307343	     54.95477783	      0.95914181	     19.99244815	      9.99361007	      0.00000000	      0.00000000	    -47.67611219	      3.93703674	      7.92556357	     89.51766594	     -8.30552869	     34.58041103	     28.71635279	     27.88789168	      0.00000000	      0.00000000	     89.50353955	     -0.90786956	     32.62464445	     19.93665838	     25.56189455	      0.00000000	      0.00000000
      0.05500000	    -17.11014632	     -4.56771990	     -3.27964071	      0.10868439	      1.13642102	     -0.22624777	      0.00000000	      0.50000000	      0.00000000	      0.25000000	     92.53894718	     -6.76302843	     -5.52720579	     99.57285852	      1.73787423	     20.13962055	      2.67971930	      0.00000000	      0.00000000	     46.63939305	    -15.62354234	     -7.23406715	     54.96688190	      0.95935307	     20.00088670	     10.01521650	      0.00000000	      0.00000000	    -47.64938297	      3.97441295	      7.91571844	     89.51946740	     -8.23258491	     34.35233826	     28.55483471	     28.36111440	      0.00000000	      0.00000000	     89.50255973	     -0.80276055	     32.09664847	     19.82846507	     25.99143134	      0.00000000	      0.00000000
      0.06000000	    -17.08806699	     -4.57412019	     -3.28275580	      0.10870841	      1.13645695	     -0.22625240	      0.00000000	      0.50000000	      0.00000000	      0.25000000	     92.51692556	     -6.75957727	     -5.53520731	     99.57786525	      1.73796161	     20.12325194	      2.66330606	      0.00000000	      0.00000000	     46.60832901	    -15.63469021	     -7.24591831	     54.95425753	      0.95913273	     20.00264164	     10.02505953	      0.00000000	      0.00000000	    -47.68473010	      3.96716486	      7.92191049	     89.51631977	     -8.06672103	     33.47630849	     28.25766633	     30.01923024	      0.00000000	      0.00000000	     89.50084222	     -0.52666453	     30.41395706	     19.63595356	     27.67466148	      0.00000000	      0.00000000
      0.06500000	    -16.99457007	     -4.58567848	     -3.32381785	      0.10880250	      1.13666264	     -0.22617809	      0.00000000	      0.50000000	      0.00000000	      0.25000000	     92.40033980	     -6.71276310	     -5.53531307	     99.57740609	      1.73795360	     20.23195600	      2.90491487	      0.00000000	      0.00000000	     46.47050996	    -15.72262596	     -7.34622417	     54.93968881	      0.95887846	     20.10232281	     10.37888865	      0.00000000	      0.00000000	    -47.84507645	      3.92156059	      7.99404593	     89.50927149	     -8.14750126	     33.01192410	     28.54379368	     30.45416445	      0.00000000	      0.00000000	     89.48486134	     -0.51600284	     29.81578517	     20.03103531	     28.10115854	      0.00000000	      0.00000000
      0.07000000	    -17.09789383	     -4.53629627	     -3.31422553	      0.10876243	      1.13644438	     -0.22619787	      0.00000000	      0.50000000	      0.00000000	      0.25000000	     92.54989631	     -6.72502321	     -5.49041266	     99.59064788	      1.73818471	     20.10334627	      2.65898074	      0.00000000	      0.00000000	     46.59010850	    -15.63068377	     -7.30854398	     54.94441366	      0.95896092	     20.02540284	     10.04531165	      0.00000000	      0.00000000	    -47.65318491	      3.91216444	      7.89398506	     89.53010517	     -8.74071072	     36.31579469	     28.77137775	     28.24646210	      0.00000000	      0.00000000	     89.49968026	     -1.13846859	     33.65945968	     20.01735153	     25.42385695	      0.00000000	      0.00000000
